G04 ================== begin FILE IDENTIFICATION RECORD ==================*
G04 Layout Name:  C:/Users/Administrator/Desktop/wpm/allegro/WBM.brd*
G04 Film Name:    BOTTOM*
G04 File Format:  Gerber RS274X*
G04 File Origin:  Cadence Allegro 17.0-P009*
G04 Origin Date:  Tue Nov 03 10:04:43 2015*
G04 *
G04 Layer:  BOARD GEOMETRY/OUTLINE*
G04 Layer:  ETCH/BOTTOM*
G04 Layer:  PIN/BOTTOM*
G04 Layer:  VIA CLASS/BOTTOM*
G04 *
G04 Offset:    (0.00 0.00)*
G04 Mirror:    No*
G04 Mode:      Positive*
G04 Rotation:  0*
G04 FullContactRelief:  No*
G04 UndefLineWidth:     4.00*
G04 ================== end FILE IDENTIFICATION RECORD ====================*
%FSLAX25Y25*MOIN*%
%IR0*IPPOS*OFA0.00000B0.00000*MIA0B0*SFA1.00000B1.00000*%
%AMMACRO14*
4,1,44,-.03149,.02755,
-.03149,-.02755,
-.031436,-.028234,
-.031259,-.028898,
-.03097,-.029521,
-.030576,-.030084,
-.030091,-.03057,
-.029529,-.030965,
-.028907,-.031256,
-.028244,-.031434,
-.02756,-.031495,
-.02755,-.03149,
.02755,-.03149,
.028234,-.031436,
.028898,-.031259,
.029521,-.03097,
.030084,-.030576,
.03057,-.030091,
.030965,-.029529,
.031256,-.028907,
.031434,-.028244,
.031495,-.02756,
.03149,-.02755,
.03149,.02755,
.031436,.028234,
.031259,.028898,
.03097,.029521,
.030576,.030084,
.030091,.03057,
.029529,.030965,
.028907,.031256,
.028244,.031434,
.02756,.031495,
.02755,.03149,
-.02755,.03149,
-.028234,.031436,
-.028898,.031259,
-.029521,.03097,
-.030084,.030576,
-.03057,.030091,
-.030965,.029529,
-.031256,.028907,
-.031434,.028244,
-.031495,.02756,
-.03149,.02755,
0.0*
%
%ADD14MACRO14*%
%ADD17C,.02362*%
%ADD11C,.05118*%
%ADD15C,.02756*%
%AMMACRO12*
4,1,40,.02559,-.02165,
.02559,.02165,
.02553,.022334,
.025352,.022998,
.025062,.02362,
.024668,.024183,
.024183,.024668,
.02362,.025062,
.022998,.025352,
.022334,.02553,
.02165,.02559,
-.02165,.02559,
-.022334,.02553,
-.022998,.025352,
-.02362,.025062,
-.024183,.024668,
-.024668,.024183,
-.025062,.02362,
-.025352,.022998,
-.02553,.022334,
-.02559,.02165,
-.02559,-.02165,
-.02553,-.022334,
-.025352,-.022998,
-.025062,-.02362,
-.024668,-.024183,
-.024183,-.024668,
-.02362,-.025062,
-.022998,-.025352,
-.022334,-.02553,
-.02165,-.02559,
.02165,-.02559,
.022334,-.02553,
.022998,-.025352,
.02362,-.025062,
.024183,-.024668,
.024668,-.024183,
.025062,-.02362,
.025352,-.022998,
.02553,-.022334,
.02559,-.02165,
0.0*
%
%ADD12MACRO12*%
%ADD16C,.09843*%
%ADD13C,.06299*%
%AMMACRO18*
4,1,44,-.02755,-.03149,
.02755,-.03149,
.028234,-.031436,
.028898,-.031259,
.029521,-.03097,
.030084,-.030576,
.03057,-.030091,
.030965,-.029529,
.031256,-.028907,
.031434,-.028244,
.031495,-.02756,
.03149,-.02755,
.03149,.02755,
.031436,.028234,
.031259,.028898,
.03097,.029521,
.030576,.030084,
.030091,.03057,
.029529,.030965,
.028907,.031256,
.028244,.031434,
.02756,.031495,
.02755,.03149,
-.02755,.03149,
-.028234,.031436,
-.028898,.031259,
-.029521,.03097,
-.030084,.030576,
-.03057,.030091,
-.030965,.029529,
-.031256,.028907,
-.031434,.028244,
-.031495,.02756,
-.03149,.02755,
-.03149,-.02755,
-.031436,-.028234,
-.031259,-.028898,
-.03097,-.029521,
-.030576,-.030084,
-.030091,-.03057,
-.029529,-.030965,
-.028907,-.031256,
-.028244,-.031434,
-.02756,-.031495,
-.02755,-.03149,
0.0*
%
%ADD18MACRO18*%
%ADD10C,.21654*%
%ADD19C,.01*%
%ADD20C,.02*%
%ADD21C,.004*%
%ADD22C,.11122*%
%ADD23C,.14846*%
%ADD24C,.15846*%
G75*
%LPD*%
G75*
G36*
G01X22322Y2000D02*
G02X22081Y2720I-1J400D01*
G03X23863Y4315I-8297J11063D01*
G02X24480Y4274I292J-274D01*
G03X27243Y2850I2764J1971D01*
G01X32757D01*
G03X36150Y6243I-1J3395D01*
G01Y11757D01*
G03X34407Y14722I-3395J-1D01*
G02X34298Y15331I195J349D01*
G03X25372Y22243I-4298J3668D01*
G02X24728Y22229I-327J230D01*
G03X2720Y22081I-10948J-8449D01*
G02X2000Y22322I-320J240D01*
G01Y95789D01*
G02X2720Y96030I400J1D01*
G03X27528Y105827I11060J8301D01*
G02X28174Y106184I398J43D01*
G03X36695Y107026I3826J4816D01*
G02X37305I305J-259D01*
G03X46991Y107404I4695J3974D01*
G02X47625Y107424I325J-234D01*
G03X55669Y106702I4375J3576D01*
G02X56278Y106593I260J-304D01*
G03X58351Y104969I2966J1651D01*
G01X58498Y104929D01*
Y102550D01*
X64156Y96892D01*
X71633D01*
G03X75238Y93287I7107J3502D01*
G01Y52190D01*
X74550Y51502D01*
X56671D01*
G03Y44498I-1671J-3502D01*
G01X77450D01*
X82242Y49290D01*
Y93287D01*
G03X85847Y96892I-3502J7107D01*
G01X99844D01*
X105502Y102550D01*
Y104929D01*
X105649Y104969D01*
G03X108150Y108243I-894J3275D01*
G01Y113757D01*
G03X107666Y115504I-3395J0D01*
G02X108008Y116110I343J206D01*
G01X175165D01*
Y2000D01*
X119315D01*
G02X119098Y2736I0J400D01*
G03X114595Y9045I-2099J3263D01*
G01X114540Y9002D01*
X113379D01*
X112379Y8002D01*
X111460D01*
X111405Y8045D01*
G03X105918Y2643I-2405J-3045D01*
G02X105600Y2000I-318J-243D01*
G01X22322D01*
G37*
%LPC*%
G75*
G36*
G01X23835Y62166D02*
X28165D01*
G02X31560Y58771I0J-3395D01*
G01Y54441D01*
G02X28165Y51046I-3395J0D01*
G01X23835D01*
G02X20440Y54441I0J3395D01*
G01Y58771D01*
G02X23835Y62166I3395J0D01*
G37*
G36*
G01X57309Y90000D02*
G02X64691I3691J1969D01*
G02X57309I-3691J-1969D01*
G37*
G36*
G01X100757Y15002D02*
X101998Y16243D01*
Y21541D01*
G02X108002I3002J2459D01*
G01Y13757D01*
X103243Y8998D01*
X86459D01*
G02X80121Y11931I-2459J3002D01*
G03X79671Y12321I-400J-7D01*
G02X85268Y16152I-931J7364D01*
G03X85469Y15591I352J-190D01*
G02X86459Y15002I-1467J-3592D01*
G01X100757D01*
G37*
G54D22*
X26000Y37394D03*
G54D23*
X157480Y19685D03*
G54D24*
Y100394D03*
%LPD*%
G75*
G54D10*
X13780Y13780D03*
Y104331D03*
X222441Y13780D03*
Y104331D03*
G54D20*
G01X30000Y19000D02*
X34338Y23338D01*
G01X25662D02*
X30000Y19000D01*
G01X47662Y106662D02*
X52000Y111000D01*
G01Y105148D02*
Y111000D01*
G01X73149Y14094D02*
X78740Y19685D01*
G01D02*
X84331Y25276D01*
G01X73149D02*
X78740Y19685D01*
G01X55000Y48000D02*
X76000D01*
X78740Y50740D01*
Y100394D01*
G01X102000Y111000D02*
Y104000D01*
X98394Y100394D01*
X78740D01*
G01D02*
X65606D01*
X62000Y104000D01*
Y111000D01*
G01X151889Y14094D02*
X157480Y19685D01*
G01D02*
X163071Y25276D01*
G01X151889D02*
X157480Y19685D01*
G01D02*
X163071Y14094D01*
G54D11*
X26000Y37394D03*
G54D21*
G01X236220Y9843D02*
Y108268D01*
G03X226378Y118110I-9842J0D01*
G01X9843D01*
G03X0Y108268I-1J-9842D01*
G01Y9843D01*
G03X9843Y0I9843J0D01*
G01X226378D01*
G03X236220Y9843I0J9842D01*
G54D12*
X26000Y56606D03*
G54D13*
X30000Y19000D03*
X32000Y111000D03*
X42000D03*
X52000D03*
X72000D03*
X82000D03*
X92000D03*
X198000Y104000D03*
G54D14*
X30000Y9000D03*
G54D15*
X55000Y48000D03*
X35000Y66000D03*
X74000Y6000D03*
X84000Y12000D03*
X85769Y63624D03*
Y57718D03*
X71769Y63624D03*
Y57718D03*
X98000Y6000D03*
X105000Y24000D03*
X109000Y5000D03*
X101675Y82624D03*
X95769D03*
X101675Y76718D03*
X110675Y72624D03*
X104769D03*
X110675Y66718D03*
X104769D03*
X111000Y104000D03*
X129000Y6000D03*
X117000D03*
X126769Y106718D03*
X132675D03*
X138580D03*
X144486D03*
X126769Y112624D03*
X132675D03*
X138580D03*
X144486D03*
X168486Y63907D03*
X162580D03*
X156675D03*
X150769D03*
X168486Y58002D03*
X162580D03*
X156675D03*
X150769D03*
X168486Y52096D03*
X162580D03*
X156675D03*
X150769D03*
X168486Y46191D03*
X162580D03*
X156675D03*
X150769D03*
X168486Y40285D03*
X162580D03*
X156675D03*
X150769D03*
X168486Y34380D03*
X162580D03*
X156675D03*
X150769D03*
X168486Y81624D03*
X162580D03*
X156675D03*
X150769D03*
X168486Y75718D03*
X162580D03*
X156675D03*
X150769D03*
X168486Y69813D03*
X162580D03*
X156675D03*
X150769D03*
G54D16*
X78740Y19685D03*
Y100394D03*
X157480Y19685D03*
Y100394D03*
G54D17*
X61000Y91969D03*
Y88031D03*
G54D18*
X62000Y111000D03*
X102000D03*
G54D19*
G01X105000Y24000D02*
Y15000D01*
X102000Y12000D01*
X84000D01*
G01X109000Y5000D02*
X113622D01*
X114622Y6000D01*
X117000D01*
M02*
