G04 ================== begin FILE IDENTIFICATION RECORD ==================*
G04 Layout Name:  C:/Users/Administrator/Desktop/wpm/allegro/WBM.brd*
G04 Film Name:    SILKSCREEN_TOP*
G04 File Format:  Gerber RS274X*
G04 File Origin:  Cadence Allegro 17.0-P009*
G04 Origin Date:  Tue Nov 03 10:04:43 2015*
G04 *
G04 Layer:  REF DES/SILKSCREEN_TOP*
G04 Layer:  PACKAGE GEOMETRY/SILKSCREEN_TOP*
G04 Layer:  BOARD GEOMETRY/OUTLINE*
G04 Layer:  BOARD GEOMETRY/SILKSCREEN_TOP*
G04 *
G04 Offset:    (0.00 0.00)*
G04 Mirror:    No*
G04 Mode:      Positive*
G04 Rotation:  0*
G04 FullContactRelief:  No*
G04 UndefLineWidth:     4.00*
G04 ================== end FILE IDENTIFICATION RECORD ====================*
%FSLAX25Y25*MOIN*%
%IR0*IPPOS*OFA0.00000B0.00000*MIA0B0*SFA1.00000B1.00000*%
%ADD10C,.004*%
%ADD11C,.006*%
%ADD12C,.00591*%
%ADD13C,.00984*%
G75*
%LPD*%
G75*
G54D10*
G01X236220Y9843D02*
Y108268D01*
G03X226378Y118110I-9842J0D01*
G01X9843D01*
G03X0Y108268I-1J-9842D01*
G01Y9843D01*
G03X9843Y0I9843J0D01*
G01X226378D01*
G03X236220Y9843I0J9842D01*
G54D11*
G01X11000Y48700D02*
X12800D01*
X15000Y49567D01*
G01Y47833D02*
X12800Y48700D01*
G01X11000Y45100D02*
X15000D01*
X14200Y45620D01*
G01X11000D02*
Y44580D01*
G01X6667Y37747D02*
X6867Y38007D01*
X7000Y38310D01*
Y38657D01*
X6800Y39047D01*
X6467Y39350D01*
X6067Y39567D01*
X5400Y39740D01*
X4800Y39783D01*
X4200Y39697D01*
X3800Y39567D01*
X3400Y39307D01*
X3133Y39003D01*
X3000Y38700D01*
Y38397D01*
X3133Y38093D01*
X3333Y37833D01*
X3600Y37617D01*
G01Y36053D02*
X3267Y35793D01*
X3067Y35490D01*
X3000Y35100D01*
X3133Y34710D01*
X3400Y34407D01*
X3867Y34190D01*
X4400Y34147D01*
X4933Y34233D01*
X5267Y34450D01*
X5533Y34753D01*
X5600Y35057D01*
X5533Y35360D01*
X5267Y35750D01*
X7000Y35620D01*
Y34450D01*
G01X6667Y58747D02*
X6867Y59007D01*
X7000Y59310D01*
Y59657D01*
X6800Y60047D01*
X6467Y60350D01*
X6067Y60567D01*
X5400Y60740D01*
X4800Y60783D01*
X4200Y60697D01*
X3800Y60567D01*
X3400Y60307D01*
X3133Y60003D01*
X3000Y59700D01*
Y59397D01*
X3133Y59093D01*
X3333Y58833D01*
X3600Y58617D01*
G01X3000Y55580D02*
X7000D01*
X4133Y57183D01*
Y55017D01*
G01X21533Y93610D02*
X21200Y93263D01*
X21000Y92873D01*
Y92527D01*
X21200Y92180D01*
X21533Y91920D01*
X22000Y91790D01*
X22467Y91877D01*
X22867Y92093D01*
X23133Y92483D01*
X23267Y93003D01*
X23533Y93307D01*
X24000Y93437D01*
X24467Y93350D01*
X24800Y93133D01*
X25000Y92830D01*
Y92527D01*
X24867Y92223D01*
X24533Y91963D01*
G01X25000Y90400D02*
X21000Y89793D01*
X25000Y89100D01*
X21000Y88407D01*
X25000Y87800D01*
G01X21000Y85500D02*
X25000D01*
X24200Y86020D01*
G01X21000D02*
Y84980D01*
G01X23800Y115567D02*
X23400Y115350D01*
X23133Y115090D01*
X23000Y114787D01*
X23133Y114440D01*
X23400Y114180D01*
X23800Y113920D01*
X24333Y113833D01*
X27000D01*
G01X23000Y111100D02*
X27000D01*
X26200Y111620D01*
G01X23000D02*
Y110580D01*
G01X51000Y27567D02*
X55000D01*
Y26483D01*
X54800Y26137D01*
X54533Y25920D01*
X54000Y25833D01*
X53467Y25920D01*
X53133Y26180D01*
X52933Y26483D01*
Y27567D01*
G01Y26483D02*
X51000Y25833D01*
G01Y23100D02*
X55000D01*
X54200Y23620D01*
G01X51000D02*
Y22580D01*
G01X36800Y8567D02*
X36400Y8350D01*
X36133Y8090D01*
X36000Y7787D01*
X36133Y7440D01*
X36400Y7180D01*
X36800Y6920D01*
X37333Y6833D01*
X40000D01*
G01X36800Y5053D02*
X36333Y4793D01*
X36067Y4447D01*
X36000Y4057D01*
X36067Y3710D01*
X36400Y3363D01*
X36800Y3147D01*
X37200Y3103D01*
X37667Y3190D01*
X38000Y3493D01*
X38133Y3797D01*
Y4187D01*
G01Y3797D02*
X38333Y3537D01*
X38667Y3320D01*
X39067Y3233D01*
X39467Y3320D01*
X39800Y3537D01*
X40000Y3927D01*
X39933Y4317D01*
X39667Y4707D01*
G01X40000Y26700D02*
X40067Y27047D01*
X40333Y27350D01*
X40733Y27610D01*
X41200Y27783D01*
X41733Y27870D01*
X42267D01*
X42800Y27783D01*
X43267Y27610D01*
X43667Y27350D01*
X43933Y27047D01*
X44000Y26700D01*
X43933Y26353D01*
X43667Y26050D01*
X43267Y25790D01*
X42800Y25617D01*
X42267Y25530D01*
X41733D01*
X41200Y25617D01*
X40733Y25790D01*
X40333Y26050D01*
X40067Y26353D01*
X40000Y26700D01*
G01X41067Y26353D02*
X40000Y25833D01*
G01Y23100D02*
X44000D01*
X43200Y23620D01*
G01X40000D02*
Y22580D01*
G01X51667Y47747D02*
X51867Y48007D01*
X52000Y48310D01*
Y48657D01*
X51800Y49047D01*
X51467Y49350D01*
X51067Y49567D01*
X50400Y49740D01*
X49800Y49783D01*
X49200Y49697D01*
X48800Y49567D01*
X48400Y49307D01*
X48133Y49003D01*
X48000Y48700D01*
Y48397D01*
X48133Y48093D01*
X48333Y47833D01*
X48600Y47617D01*
G01X48000Y45100D02*
X52000D01*
X51200Y45620D01*
G01X48000D02*
Y44580D01*
G01X43667Y47747D02*
X43867Y48007D01*
X44000Y48310D01*
Y48657D01*
X43800Y49047D01*
X43467Y49350D01*
X43067Y49567D01*
X42400Y49740D01*
X41800Y49783D01*
X41200Y49697D01*
X40800Y49567D01*
X40400Y49307D01*
X40133Y49003D01*
X40000Y48700D01*
Y48397D01*
X40133Y48093D01*
X40333Y47833D01*
X40600Y47617D01*
G01X43333Y45923D02*
X43733Y45663D01*
X43933Y45360D01*
X44000Y45013D01*
X43867Y44580D01*
X43533Y44277D01*
X43133Y44190D01*
X42733Y44233D01*
X42400Y44407D01*
X41733Y45273D01*
X41267Y45663D01*
X40600Y45923D01*
X40000Y46010D01*
Y44190D01*
G01X43667Y69747D02*
X43867Y70007D01*
X44000Y70310D01*
Y70657D01*
X43800Y71047D01*
X43467Y71350D01*
X43067Y71567D01*
X42400Y71740D01*
X41800Y71783D01*
X41200Y71697D01*
X40800Y71567D01*
X40400Y71307D01*
X40133Y71003D01*
X40000Y70700D01*
Y70397D01*
X40133Y70093D01*
X40333Y69833D01*
X40600Y69617D01*
G01X40800Y68053D02*
X40333Y67793D01*
X40067Y67447D01*
X40000Y67057D01*
X40067Y66710D01*
X40400Y66363D01*
X40800Y66147D01*
X41200Y66103D01*
X41667Y66190D01*
X42000Y66493D01*
X42133Y66797D01*
Y67187D01*
G01Y66797D02*
X42333Y66537D01*
X42667Y66320D01*
X43067Y66233D01*
X43467Y66320D01*
X43800Y66537D01*
X44000Y66927D01*
X43933Y67317D01*
X43667Y67707D01*
G01X58000Y80653D02*
X55133D01*
X54533Y80480D01*
X54133Y80133D01*
X54000Y79700D01*
X54133Y79267D01*
X54533Y78920D01*
X55133Y78747D01*
X58000D01*
G01X54000Y76100D02*
X58000D01*
X57200Y76620D01*
G01X54000D02*
Y75580D01*
G01X30667Y100747D02*
X30867Y101007D01*
X31000Y101310D01*
Y101657D01*
X30800Y102047D01*
X30467Y102350D01*
X30067Y102567D01*
X29400Y102740D01*
X28800Y102783D01*
X28200Y102697D01*
X27800Y102567D01*
X27400Y102307D01*
X27133Y102003D01*
X27000Y101700D01*
Y101397D01*
X27133Y101093D01*
X27333Y100833D01*
X27600Y100617D01*
G01X28667Y98923D02*
X29133Y98620D01*
X29400Y98360D01*
X29533Y98013D01*
X29400Y97710D01*
X29133Y97493D01*
X28733Y97320D01*
X28267Y97277D01*
X27867Y97320D01*
X27467Y97493D01*
X27133Y97753D01*
X27000Y98057D01*
X27133Y98403D01*
X27533Y98707D01*
X28133Y98880D01*
X28800Y98923D01*
X29667Y98837D01*
X30133Y98707D01*
X30600Y98490D01*
X30933Y98187D01*
X31000Y97883D01*
X30867Y97580D01*
X30533Y97363D01*
G01X62000Y28700D02*
X62067Y29047D01*
X62333Y29350D01*
X62733Y29610D01*
X63200Y29783D01*
X63733Y29870D01*
X64267D01*
X64800Y29783D01*
X65267Y29610D01*
X65667Y29350D01*
X65933Y29047D01*
X66000Y28700D01*
X65933Y28353D01*
X65667Y28050D01*
X65267Y27790D01*
X64800Y27617D01*
X64267Y27530D01*
X63733D01*
X63200Y27617D01*
X62733Y27790D01*
X62333Y28050D01*
X62067Y28353D01*
X62000Y28700D01*
G01X63067Y28353D02*
X62000Y27833D01*
G01X65333Y25923D02*
X65733Y25663D01*
X65933Y25360D01*
X66000Y25013D01*
X65867Y24580D01*
X65533Y24277D01*
X65133Y24190D01*
X64733Y24233D01*
X64400Y24407D01*
X63733Y25273D01*
X63267Y25663D01*
X62600Y25923D01*
X62000Y26010D01*
Y24190D01*
G01X64000Y91700D02*
X65800D01*
X68000Y92567D01*
G01Y90833D02*
X65800Y91700D01*
G01X67333Y88923D02*
X67733Y88663D01*
X67933Y88360D01*
X68000Y88013D01*
X67867Y87580D01*
X67533Y87277D01*
X67133Y87190D01*
X66733Y87233D01*
X66400Y87407D01*
X65733Y88273D01*
X65267Y88663D01*
X64600Y88923D01*
X64000Y89010D01*
Y87190D01*
G01X83000Y88653D02*
X87000D01*
Y87787D01*
X86800Y87440D01*
X86533Y87180D01*
X86133Y86963D01*
X85667Y86790D01*
X85000Y86747D01*
X84333Y86790D01*
X83867Y86963D01*
X83467Y87180D01*
X83200Y87440D01*
X83000Y87787D01*
Y88653D01*
G01Y83580D02*
X87000D01*
X84133Y85183D01*
Y83017D01*
G01X83000Y95653D02*
X87000D01*
Y94787D01*
X86800Y94440D01*
X86533Y94180D01*
X86133Y93963D01*
X85667Y93790D01*
X85000Y93747D01*
X84333Y93790D01*
X83867Y93963D01*
X83467Y94180D01*
X83200Y94440D01*
X83000Y94787D01*
Y95653D01*
G01X83800Y92053D02*
X83333Y91793D01*
X83067Y91447D01*
X83000Y91057D01*
X83067Y90710D01*
X83400Y90363D01*
X83800Y90147D01*
X84200Y90103D01*
X84667Y90190D01*
X85000Y90493D01*
X85133Y90797D01*
Y91187D01*
G01Y90797D02*
X85333Y90537D01*
X85667Y90320D01*
X86067Y90233D01*
X86467Y90320D01*
X86800Y90537D01*
X87000Y90927D01*
X86933Y91317D01*
X86667Y91707D01*
G01X66667Y100747D02*
X66867Y101007D01*
X67000Y101310D01*
Y101657D01*
X66800Y102047D01*
X66467Y102350D01*
X66067Y102567D01*
X65400Y102740D01*
X64800Y102783D01*
X64200Y102697D01*
X63800Y102567D01*
X63400Y102307D01*
X63133Y102003D01*
X63000Y101700D01*
Y101397D01*
X63133Y101093D01*
X63333Y100833D01*
X63600Y100617D01*
G01X63000Y98187D02*
X63867Y98100D01*
X64600Y97970D01*
X65267Y97797D01*
X66000Y97580D01*
X67000Y97233D01*
Y98967D01*
G01X111000Y28567D02*
X115000D01*
Y27483D01*
X114800Y27137D01*
X114533Y26920D01*
X114000Y26833D01*
X113467Y26920D01*
X113133Y27180D01*
X112933Y27483D01*
Y28567D01*
G01Y27483D02*
X111000Y26833D01*
G01Y23580D02*
X115000D01*
X112133Y25183D01*
Y23017D01*
G01X103000Y31567D02*
X107000D01*
Y30483D01*
X106800Y30137D01*
X106533Y29920D01*
X106000Y29833D01*
X105467Y29920D01*
X105133Y30180D01*
X104933Y30483D01*
Y31567D01*
G01Y30483D02*
X103000Y29833D01*
G01X106333Y27923D02*
X106733Y27663D01*
X106933Y27360D01*
X107000Y27013D01*
X106867Y26580D01*
X106533Y26277D01*
X106133Y26190D01*
X105733Y26233D01*
X105400Y26407D01*
X104733Y27273D01*
X104267Y27663D01*
X103600Y27923D01*
X103000Y28010D01*
Y26190D01*
G01X89000Y31653D02*
X93000D01*
Y30787D01*
X92800Y30440D01*
X92533Y30180D01*
X92133Y29963D01*
X91667Y29790D01*
X91000Y29747D01*
X90333Y29790D01*
X89867Y29963D01*
X89467Y30180D01*
X89200Y30440D01*
X89000Y30787D01*
Y31653D01*
G01Y27100D02*
X93000D01*
X92200Y27620D01*
G01X89000D02*
Y26580D01*
G01X96000Y31653D02*
X100000D01*
Y30787D01*
X99800Y30440D01*
X99533Y30180D01*
X99133Y29963D01*
X98667Y29790D01*
X98000Y29747D01*
X97333Y29790D01*
X96867Y29963D01*
X96467Y30180D01*
X96200Y30440D01*
X96000Y30787D01*
Y31653D01*
G01X99333Y27923D02*
X99733Y27663D01*
X99933Y27360D01*
X100000Y27013D01*
X99867Y26580D01*
X99533Y26277D01*
X99133Y26190D01*
X98733Y26233D01*
X98400Y26407D01*
X97733Y27273D01*
X97267Y27663D01*
X96600Y27923D01*
X96000Y28010D01*
Y26190D01*
G01X108800Y113567D02*
X108400Y113350D01*
X108133Y113090D01*
X108000Y112787D01*
X108133Y112440D01*
X108400Y112180D01*
X108800Y111920D01*
X109333Y111833D01*
X112000D01*
G01X111333Y109923D02*
X111733Y109663D01*
X111933Y109360D01*
X112000Y109013D01*
X111867Y108580D01*
X111533Y108277D01*
X111133Y108190D01*
X110733Y108233D01*
X110400Y108407D01*
X109733Y109273D01*
X109267Y109663D01*
X108600Y109923D01*
X108000Y110010D01*
Y108190D01*
G01X135000Y7567D02*
X139000D01*
Y6483D01*
X138800Y6137D01*
X138533Y5920D01*
X138000Y5833D01*
X137467Y5920D01*
X137133Y6180D01*
X136933Y6483D01*
Y7567D01*
G01Y6483D02*
X135000Y5833D01*
G01X136667Y3923D02*
X137133Y3620D01*
X137400Y3360D01*
X137533Y3013D01*
X137400Y2710D01*
X137133Y2493D01*
X136733Y2320D01*
X136267Y2277D01*
X135867Y2320D01*
X135467Y2493D01*
X135133Y2753D01*
X135000Y3057D01*
X135133Y3403D01*
X135533Y3707D01*
X136133Y3880D01*
X136800Y3923D01*
X137667Y3837D01*
X138133Y3707D01*
X138600Y3490D01*
X138933Y3187D01*
X139000Y2883D01*
X138867Y2580D01*
X138533Y2363D01*
G01X146667Y5747D02*
X146867Y6007D01*
X147000Y6310D01*
Y6657D01*
X146800Y7047D01*
X146467Y7350D01*
X146067Y7567D01*
X145400Y7740D01*
X144800Y7783D01*
X144200Y7697D01*
X143800Y7567D01*
X143400Y7307D01*
X143133Y7003D01*
X143000Y6700D01*
Y6397D01*
X143133Y6093D01*
X143333Y5833D01*
X143600Y5617D01*
G01X143467Y3837D02*
X143133Y3533D01*
X143000Y3187D01*
X143133Y2840D01*
X143533Y2537D01*
X144133Y2320D01*
X144733Y2233D01*
X145467D01*
X146067Y2320D01*
X146600Y2537D01*
X146867Y2797D01*
X147000Y3100D01*
X146867Y3447D01*
X146600Y3707D01*
X146200Y3880D01*
X145667Y3967D01*
X145200Y3880D01*
X144733Y3663D01*
X144467Y3403D01*
X144400Y3100D01*
X144533Y2753D01*
X144867Y2493D01*
X145467Y2233D01*
G01X127000Y28567D02*
X131000D01*
Y27483D01*
X130800Y27137D01*
X130533Y26920D01*
X130000Y26833D01*
X129467Y26920D01*
X129133Y27180D01*
X128933Y27483D01*
Y28567D01*
G01Y27483D02*
X127000Y26833D01*
G01X127600Y25053D02*
X127267Y24793D01*
X127067Y24490D01*
X127000Y24100D01*
X127133Y23710D01*
X127400Y23407D01*
X127867Y23190D01*
X128400Y23147D01*
X128933Y23233D01*
X129267Y23450D01*
X129533Y23753D01*
X129600Y24057D01*
X129533Y24360D01*
X129267Y24750D01*
X131000Y24620D01*
Y23450D01*
G01X119000Y28567D02*
X123000D01*
Y27483D01*
X122800Y27137D01*
X122533Y26920D01*
X122000Y26833D01*
X121467Y26920D01*
X121133Y27180D01*
X120933Y27483D01*
Y28567D01*
G01Y27483D02*
X119000Y26833D01*
G01X119800Y25053D02*
X119333Y24793D01*
X119067Y24447D01*
X119000Y24057D01*
X119067Y23710D01*
X119400Y23363D01*
X119800Y23147D01*
X120200Y23103D01*
X120667Y23190D01*
X121000Y23493D01*
X121133Y23797D01*
Y24187D01*
G01Y23797D02*
X121333Y23537D01*
X121667Y23320D01*
X122067Y23233D01*
X122467Y23320D01*
X122800Y23537D01*
X123000Y23927D01*
X122933Y24317D01*
X122667Y24707D01*
G01X121000Y93567D02*
X125000D01*
Y92483D01*
X124800Y92137D01*
X124533Y91920D01*
X124000Y91833D01*
X123467Y91920D01*
X123133Y92180D01*
X122933Y92483D01*
Y93567D01*
G01Y92483D02*
X121000Y91833D01*
G01Y89100D02*
X121067Y88797D01*
X121267Y88450D01*
X121600Y88233D01*
X122067Y88147D01*
X122533Y88233D01*
X122933Y88493D01*
X123133Y88883D01*
Y89317D01*
X123267Y89577D01*
X123600Y89793D01*
X124067Y89880D01*
X124533Y89750D01*
X124867Y89447D01*
X125000Y89100D01*
X124867Y88753D01*
X124533Y88450D01*
X124067Y88320D01*
X123600Y88407D01*
X123267Y88623D01*
X123133Y88883D01*
Y89317D01*
X122933Y89707D01*
X122533Y89967D01*
X122067Y90053D01*
X121600Y89967D01*
X121267Y89750D01*
X121067Y89403D01*
X121000Y89100D01*
G01X124667Y83747D02*
X124867Y84007D01*
X125000Y84310D01*
Y84657D01*
X124800Y85047D01*
X124467Y85350D01*
X124067Y85567D01*
X123400Y85740D01*
X122800Y85783D01*
X122200Y85697D01*
X121800Y85567D01*
X121400Y85307D01*
X121133Y85003D01*
X121000Y84700D01*
Y84397D01*
X121133Y84093D01*
X121333Y83833D01*
X121600Y83617D01*
G01X121000Y81100D02*
X121067Y80797D01*
X121267Y80450D01*
X121600Y80233D01*
X122067Y80147D01*
X122533Y80233D01*
X122933Y80493D01*
X123133Y80883D01*
Y81317D01*
X123267Y81577D01*
X123600Y81793D01*
X124067Y81880D01*
X124533Y81750D01*
X124867Y81447D01*
X125000Y81100D01*
X124867Y80753D01*
X124533Y80450D01*
X124067Y80320D01*
X123600Y80407D01*
X123267Y80623D01*
X123133Y80883D01*
Y81317D01*
X122933Y81707D01*
X122533Y81967D01*
X122067Y82053D01*
X121600Y81967D01*
X121267Y81750D01*
X121067Y81403D01*
X121000Y81100D01*
G01Y101567D02*
X125000D01*
Y100483D01*
X124800Y100137D01*
X124533Y99920D01*
X124000Y99833D01*
X123467Y99920D01*
X123133Y100180D01*
X122933Y100483D01*
Y101567D01*
G01Y100483D02*
X121000Y99833D01*
G01Y97187D02*
X121867Y97100D01*
X122600Y96970D01*
X123267Y96797D01*
X124000Y96580D01*
X125000Y96233D01*
Y97967D01*
G01X137000Y99653D02*
X134133D01*
X133533Y99480D01*
X133133Y99133D01*
X133000Y98700D01*
X133133Y98267D01*
X133533Y97920D01*
X134133Y97747D01*
X137000D01*
G01X136333Y95923D02*
X136733Y95663D01*
X136933Y95360D01*
X137000Y95013D01*
X136867Y94580D01*
X136533Y94277D01*
X136133Y94190D01*
X135733Y94233D01*
X135400Y94407D01*
X134733Y95273D01*
X134267Y95663D01*
X133600Y95923D01*
X133000Y96010D01*
Y94190D01*
G01X178000Y110783D02*
X182000Y109700D01*
X178000Y108617D01*
G01X179400Y109007D02*
Y110393D01*
G01X178000Y107097D02*
X182000D01*
X178000Y105103D01*
X182000D01*
G01Y102500D02*
X178000D01*
G01X182000Y103497D02*
Y101503D01*
G01X178000Y98900D02*
X182000D01*
X181200Y99420D01*
G01X178000D02*
Y98380D01*
G01X219000Y78000D02*
X215000Y77393D01*
X219000Y76700D01*
X215000Y76007D01*
X219000Y75400D01*
G01X217133Y72753D02*
X217333Y72580D01*
X217667Y72450D01*
X218133Y72363D01*
X218533Y72450D01*
X218800Y72623D01*
X219000Y72927D01*
Y74097D01*
X215000D01*
Y72667D01*
X215267Y72363D01*
X215667Y72190D01*
X216133Y72103D01*
X216600Y72190D01*
X217000Y72450D01*
X217133Y72753D01*
Y74097D01*
G01X215533Y70410D02*
X215200Y70063D01*
X215000Y69673D01*
Y69327D01*
X215200Y68980D01*
X215533Y68720D01*
X216000Y68590D01*
X216467Y68677D01*
X216867Y68893D01*
X217133Y69283D01*
X217267Y69803D01*
X217533Y70107D01*
X218000Y70237D01*
X218467Y70150D01*
X218800Y69933D01*
X219000Y69630D01*
Y69327D01*
X218867Y69023D01*
X218533Y68763D01*
G01X215000Y63167D02*
X219000D01*
Y62083D01*
X218800Y61737D01*
X218533Y61520D01*
X218000Y61433D01*
X217467Y61520D01*
X217133Y61780D01*
X216933Y62083D01*
Y63167D01*
G01Y62083D02*
X215000Y61433D01*
G01X216800Y59350D02*
Y57963D01*
X217267Y58093D01*
X217533Y58310D01*
X217667Y58613D01*
X217600Y58917D01*
X217400Y59177D01*
X216933Y59350D01*
X216533Y59437D01*
X216133D01*
X215733Y59350D01*
X215333Y59133D01*
X215067Y58873D01*
X215000Y58570D01*
X215133Y58267D01*
X215533Y57963D01*
G01X217667Y55880D02*
X215000Y55100D01*
X217667Y54320D01*
G01X215000Y48983D02*
X219000Y47900D01*
X215000Y46817D01*
G01X216400Y47207D02*
Y48593D01*
G01X219000Y44300D02*
X218867Y44647D01*
X218533Y44907D01*
X218133Y45080D01*
X217600Y45210D01*
X217000Y45253D01*
X216400Y45210D01*
X215867Y45080D01*
X215467Y44907D01*
X215133Y44647D01*
X215000Y44300D01*
X215133Y43953D01*
X215467Y43693D01*
X215867Y43520D01*
X216400Y43390D01*
X217000Y43347D01*
X217600Y43390D01*
X218133Y43520D01*
X218533Y43693D01*
X218867Y43953D01*
X219000Y44300D01*
G01X207000Y73700D02*
X211000D01*
X210200Y74220D01*
G01X207000D02*
Y73180D01*
G01X207600Y71053D02*
X207267Y70793D01*
X207067Y70490D01*
X207000Y70100D01*
X207133Y69710D01*
X207400Y69407D01*
X207867Y69190D01*
X208400Y69147D01*
X208933Y69233D01*
X209267Y69450D01*
X209533Y69753D01*
X209600Y70057D01*
X209533Y70360D01*
X209267Y70750D01*
X211000Y70620D01*
Y69450D01*
G01X206867Y67280D02*
X211000Y65720D01*
G01X207000Y62900D02*
X211000D01*
X210200Y63420D01*
G01X207000D02*
Y62380D01*
G01Y59300D02*
X211000D01*
X210200Y59820D01*
G01X207000D02*
Y58780D01*
G01X206867Y56480D02*
X211000Y54920D01*
G01Y52100D02*
X210867Y52447D01*
X210533Y52707D01*
X210133Y52880D01*
X209600Y53010D01*
X209000Y53053D01*
X208400Y53010D01*
X207867Y52880D01*
X207467Y52707D01*
X207133Y52447D01*
X207000Y52100D01*
X207133Y51753D01*
X207467Y51493D01*
X207867Y51320D01*
X208400Y51190D01*
X209000Y51147D01*
X209600Y51190D01*
X210133Y51320D01*
X210533Y51493D01*
X210867Y51753D01*
X211000Y52100D01*
G01X210333Y49323D02*
X210733Y49063D01*
X210933Y48760D01*
X211000Y48413D01*
X210867Y47980D01*
X210533Y47677D01*
X210133Y47590D01*
X209733Y47633D01*
X209400Y47807D01*
X208733Y48673D01*
X208267Y49063D01*
X207600Y49323D01*
X207000Y49410D01*
Y47590D01*
G54D12*
G01X16748Y58417D02*
Y35583D01*
G03X35252I9252J0D01*
G01Y58417D01*
G03X16748I-9252J0D01*
G01X7850Y31718D02*
Y29750D01*
X8600Y29000D01*
X13400D01*
X14100Y29700D01*
Y31669D01*
G01X31906Y42000D02*
X20094D01*
G01X31906Y51921D02*
X20094D01*
G01X31906Y49953D02*
X20094D01*
Y44047D01*
X31906D01*
Y49953D01*
G01X7850Y40331D02*
Y42299D01*
X8551Y43000D01*
X13400D01*
X14100Y42300D01*
Y40331D01*
G01X14150Y62282D02*
Y64250D01*
X13400Y65000D01*
X8600D01*
X7900Y64300D01*
Y62331D01*
G01X14150Y53669D02*
Y51701D01*
X13449Y51000D01*
X8600D01*
X7900Y51700D01*
Y53669D01*
G01X49850Y11850D02*
Y7913D01*
X56150D01*
Y11850D01*
G01X49850Y18150D02*
Y22087D01*
X56150D01*
Y18150D01*
G01X25000Y14000D02*
X35079D01*
G01X35118Y4157D02*
Y24236D01*
X24882D01*
Y4157D01*
X35118D01*
G01X46850Y31718D02*
Y29750D01*
X47600Y29000D01*
X52400D01*
X53100Y29700D01*
Y31669D01*
G01X38850Y31718D02*
Y29750D01*
X39600Y29000D01*
X44400D01*
X45100Y29700D01*
Y31669D01*
G01X47709Y15000D02*
Y11850D01*
X44559D01*
G01X36291Y15000D02*
Y11850D01*
X39441D01*
G01X46850Y40331D02*
Y42299D01*
X47551Y43000D01*
X52400D01*
X53100Y42300D01*
Y40331D01*
G01X38850Y53718D02*
Y51750D01*
X39600Y51000D01*
X44400D01*
X45100Y51700D01*
Y53669D01*
G01X38850Y40331D02*
Y42299D01*
X39551Y43000D01*
X44400D01*
X45100Y42300D01*
Y40331D01*
G01X38850Y62331D02*
Y64299D01*
X39551Y65000D01*
X44400D01*
X45100Y64300D01*
Y62331D01*
G01X50669Y96850D02*
X48701D01*
X48000Y97551D01*
Y102400D01*
X48700Y103100D01*
X50669D01*
G01X34718Y103150D02*
X32750D01*
X32000Y102400D01*
Y97600D01*
X32700Y96900D01*
X34669D01*
G01X43331Y103150D02*
X45299D01*
X46000Y102449D01*
Y97600D01*
X45300Y96900D01*
X43331D01*
G01X67000Y116000D02*
X27000D01*
Y106000D01*
X67000D01*
Y116000D01*
G01X58291Y15000D02*
Y18150D01*
X61441D01*
G01X69709Y15000D02*
Y18150D01*
X66559D01*
G01X59282Y96850D02*
X61250D01*
X62000Y97600D01*
Y102400D01*
X61300Y103100D01*
X59331D01*
G01X107000Y116000D02*
X67000D01*
Y106000D01*
X107000D01*
Y116000D01*
G01X57000D02*
Y106000D01*
G01X116150Y18150D02*
Y22087D01*
X109850D01*
Y18150D01*
G01X116150Y11850D02*
Y7913D01*
X109850D01*
Y11850D01*
G01X108150Y18150D02*
Y22087D01*
X101850D01*
Y18150D01*
G01X108150Y11850D02*
Y7913D01*
X101850D01*
Y11850D01*
G01X93461Y9126D02*
Y8339D01*
X88539D01*
Y9126D01*
G01X89327Y20346D02*
X88539D01*
Y13654D01*
X89327D01*
G01X92673D02*
X93461D01*
Y20346D01*
X92673D01*
G01X100461Y9126D02*
Y8339D01*
X95539D01*
Y9126D01*
G01X96327Y20346D02*
X95539D01*
Y13654D01*
X96327D01*
G01X99673D02*
X100461D01*
Y20346D01*
X99673D01*
G01X109850Y87850D02*
X105913D01*
Y94150D01*
X109850D01*
G01X99937Y87850D02*
X103087D01*
Y94150D01*
X99937D01*
G01X92063Y87850D02*
X88913D01*
Y94150D01*
X92063D01*
G01X87732Y87850D02*
Y94150D01*
G01X108718Y86150D02*
X106750D01*
X106000Y85400D01*
Y80600D01*
X106700Y79900D01*
X108669D01*
G01X109850Y95850D02*
X105913D01*
Y102150D01*
X109850D01*
G01X99937Y95850D02*
X103087D01*
Y102150D01*
X99937D01*
G01X92063Y95850D02*
X88913D01*
Y102150D01*
X92063D01*
G01X87732Y95850D02*
Y102150D01*
G01X97000Y116000D02*
Y106000D01*
G01X133850Y11850D02*
Y7913D01*
X140150D01*
Y11850D01*
G01X133850Y18150D02*
Y22087D01*
X140150D01*
Y18150D01*
G01X132150D02*
Y22087D01*
X125850D01*
Y18150D01*
G01X132150Y11850D02*
Y7913D01*
X125850D01*
Y11850D01*
G01X117850D02*
Y7913D01*
X124150D01*
Y11850D01*
G01X117850Y18150D02*
Y22087D01*
X124150D01*
Y18150D01*
G01X148150Y19282D02*
Y21250D01*
X147400Y22000D01*
X142600D01*
X141900Y21300D01*
Y19331D01*
G01X148150Y10669D02*
Y8701D01*
X147449Y8000D01*
X142600D01*
X141900Y8700D01*
Y10669D01*
G01X116150Y87850D02*
X120087D01*
Y94150D01*
X116150D01*
G01X117331Y86150D02*
X119299D01*
X120000Y85449D01*
Y80600D01*
X119300Y79900D01*
X117331D01*
G01X116150Y95850D02*
X120087D01*
Y102150D01*
X116150D01*
G54D13*
G01X29937Y77969D02*
X22063D01*
Y74031D01*
X29937D01*
Y77969D01*
G01X37024Y83087D02*
X14976D01*
Y68913D01*
X37024D01*
Y83087D01*
G01X57063Y86063D02*
X33441D01*
Y93937D01*
X57063D01*
Y86063D01*
G01X60740Y45055D02*
Y41055D01*
X64740D01*
G01X57000Y92000D02*
X58000D01*
G01X57000Y88000D02*
X58000D01*
G01X64709Y75055D02*
G03I-1969J0D01*
G01X60740Y73055D02*
Y77055D01*
X64740D01*
G01X96740Y45055D02*
Y41055D01*
X92740D01*
G01X96740Y73055D02*
Y77055D01*
X92740D01*
G01X198480Y77646D02*
Y24535D01*
X133520D01*
Y26520D01*
G01X198520Y89520D02*
Y91465D01*
X133520D01*
Y89520D01*
G01X207843Y104000D02*
G03I-9843J0D01*
M02*
