M48
INCH
T01C.01181
T02C.01969
T03C.02362
T04C.0315
T05C.05118
T06C.1063
;LEADER: 12 
;HEADER: 
;CODE  : ASCII 
;FILE  : WBM-1-2.drl for  ... layers TOP and BOTTOM
;DESIGN: WBM.brd
;T01 Holesize 1. = 11.810000 Tolerance = +0.000000/-0.000000 PLATED MILS Quantity = 2
;T02 Holesize 2. = 19.690000 Tolerance = +0.000000/-0.000000 PLATED MILS Quantity = 65
;T03 Holesize 3. = 23.620000 Tolerance = +0.000000/-0.000000 PLATED MILS Quantity = 2
;T04 Holesize 4. = 31.500000 Tolerance = +0.000000/-0.000000 PLATED MILS Quantity = 11
;T05 Holesize 5. = 51.180000 Tolerance = +0.000000/-0.000000 PLATED MILS Quantity = 4
;T06 Holesize 6. = 106.300000 Tolerance = +0.000000/-0.000000 PLATED MILS Quantity = 4
%
G90
T01
X0061000Y0088031
X0061000Y0091969
T02
X0109000Y0005000
X0117000Y0006000
X0055000Y0048000
X0084000Y0012000
X0105000Y0024000
X0071769Y0057718
X0071769Y0063624
X0150769Y0034380
X0156675Y0034380
X0162580Y0034380
X0168486Y0034380
X0150769Y0040285
X0156675Y0040285
X0162580Y0040285
X0168486Y0040285
X0150769Y0046191
X0156675Y0046191
X0162580Y0046191
X0168486Y0046191
X0150769Y0052096
X0156675Y0052096
X0162580Y0052096
X0168486Y0052096
X0150769Y0058002
X0156675Y0058002
X0162580Y0058002
X0168486Y0058002
X0150769Y0063907
X0156675Y0063907
X0162580Y0063907
X0168486Y0063907
X0150769Y0069813
X0156675Y0069813
X0162580Y0069813
X0168486Y0069813
X0150769Y0075718
X0156675Y0075718
X0162580Y0075718
X0168486Y0075718
X0150769Y0081624
X0156675Y0081624
X0162580Y0081624
X0168486Y0081624
X0104769Y0066718
X0110675Y0066718
X0104769Y0072624
X0110675Y0072624
X0101675Y0076718
X0095769Y0082624
X0101675Y0082624
X0085769Y0057718
X0085769Y0063624
X0144486Y0112624
X0138580Y0112624
X0132675Y0112624
X0126769Y0112624
X0144486Y0106718
X0138580Y0106718
X0132675Y0106718
X0126769Y0106718
X0129000Y0006000
X0098000Y0006000
X0074000Y0006000
X0111000Y0104000
X0035000Y0066000
T03
X0026000Y0056606
X0026000Y0037394
T04
X0030000Y0009000
X0030000Y0019000
X0198000Y0104000
X0062000Y0111000
R03X-0010000
X0102000Y0111000
R03X-0010000
T05
X0078740Y0100394
X0078740Y0019685
X0157480Y0100394
X0157480Y0019685
T06
X0013780Y0013780
X0013780Y0104331
X0222441Y0013780
X0222441Y0104331
M30
